<mxfile host="app.diagrams.net" agent="Mozilla/5.0 (Macintosh; Intel Mac OS X 10_15_7) AppleWebKit/605.1.15 (KHTML, like Gecko) Version/18.5 Safari/605.1.15" version="28.0.7">
  <diagram name="Page-1" id="HeY2LeON4eZHRDTgvdxS">
    <mxGraphModel dx="1780" dy="686" grid="1" gridSize="10" guides="1" tooltips="1" connect="1" arrows="1" fold="1" page="1" pageScale="1" pageWidth="827" pageHeight="1169" math="0" shadow="0">
      <root>
        <mxCell id="0" />
        <mxCell id="1" parent="0" />
        <mxCell id="rzhcJyeLl6TSTbfqU0lv-5" value="&lt;span style=&quot;white-space: pre;&quot;&gt;&amp;lt;&amp;lt;&lt;/span&gt;Execution Envrionment&amp;gt;&amp;gt;&lt;div&gt;&lt;span style=&quot;white-space: pre;&quot;&gt;Host OS&lt;/span&gt;&lt;/div&gt;" style="shape=cube;whiteSpace=wrap;html=1;boundedLbl=1;backgroundOutline=1;darkOpacity=0.05;darkOpacity2=0.1;align=left;verticalAlign=top;" vertex="1" parent="1">
          <mxGeometry x="-40" y="20" width="890" height="530" as="geometry" />
        </mxCell>
        <mxCell id="rzhcJyeLl6TSTbfqU0lv-1" value="&lt;div&gt;&amp;lt;&amp;lt;Docker Container&amp;gt;&amp;gt;&lt;/div&gt;&lt;div&gt;Name: dev-rucio-1&lt;/div&gt;&lt;div&gt;Amount: {1,...,N}&lt;/div&gt;" style="shape=cube;whiteSpace=wrap;html=1;boundedLbl=1;backgroundOutline=1;darkOpacity=0.05;darkOpacity2=0.1;align=left;verticalAlign=top;" vertex="1" parent="1">
          <mxGeometry x="310" y="90" width="160" height="100" as="geometry" />
        </mxCell>
        <mxCell id="rzhcJyeLl6TSTbfqU0lv-3" value="&lt;div&gt;&lt;div&gt;&amp;lt;&amp;lt;Docker Container&amp;gt;&amp;gt;&lt;/div&gt;&lt;div&gt;Name: dev-minio-1&lt;/div&gt;&lt;div&gt;Amount: {1,...,N}&lt;/div&gt;&lt;/div&gt;" style="shape=cube;whiteSpace=wrap;html=1;boundedLbl=1;backgroundOutline=1;darkOpacity=0.05;darkOpacity2=0.1;align=left;verticalAlign=top;" vertex="1" parent="1">
          <mxGeometry y="390" width="165" height="110" as="geometry" />
        </mxCell>
        <mxCell id="rzhcJyeLl6TSTbfqU0lv-8" value="&lt;div&gt;&lt;div&gt;&amp;lt;&amp;lt;Docker Container&amp;gt;&amp;gt;&lt;/div&gt;&lt;div&gt;Name: dev-fts-1&lt;/div&gt;&lt;div&gt;Amount: {1,...,N}&lt;/div&gt;&lt;/div&gt;" style="shape=cube;whiteSpace=wrap;html=1;boundedLbl=1;backgroundOutline=1;darkOpacity=0.05;darkOpacity2=0.1;align=left;verticalAlign=top;" vertex="1" parent="1">
          <mxGeometry x="210" y="390" width="160" height="110" as="geometry" />
        </mxCell>
        <mxCell id="rzhcJyeLl6TSTbfqU0lv-9" value="&lt;div&gt;&lt;div&gt;&amp;lt;&amp;lt;Docker Container&amp;gt;&amp;gt;&lt;/div&gt;&lt;div&gt;Name: dev-influxdb-1&lt;/div&gt;&lt;div&gt;Amount: {1,...,N}&lt;/div&gt;&lt;/div&gt;" style="shape=cube;whiteSpace=wrap;html=1;boundedLbl=1;backgroundOutline=1;darkOpacity=0.05;darkOpacity2=0.1;align=left;verticalAlign=top;" vertex="1" parent="1">
          <mxGeometry x="400" y="390" width="160" height="110" as="geometry" />
        </mxCell>
        <mxCell id="rzhcJyeLl6TSTbfqU0lv-10" value="&lt;div&gt;&lt;div&gt;&amp;lt;&amp;lt;Docker Container&amp;gt;&amp;gt;&lt;/div&gt;&lt;div&gt;Name: dev-activemq-1&lt;/div&gt;&lt;div&gt;Amount: {1,...,N}&lt;/div&gt;&lt;/div&gt;" style="shape=cube;whiteSpace=wrap;html=1;boundedLbl=1;backgroundOutline=1;darkOpacity=0.05;darkOpacity2=0.1;align=left;verticalAlign=top;" vertex="1" parent="1">
          <mxGeometry x="600" y="390" width="160" height="110" as="geometry" />
        </mxCell>
        <mxCell id="rzhcJyeLl6TSTbfqU0lv-11" value="&lt;div&gt;&lt;div&gt;&amp;lt;&amp;lt;Docker Container&amp;gt;&amp;gt;&lt;/div&gt;&lt;div&gt;Name: dev-ssh-1&lt;/div&gt;&lt;div&gt;Amount: {1,...,N}&lt;/div&gt;&lt;/div&gt;" style="shape=cube;whiteSpace=wrap;html=1;boundedLbl=1;backgroundOutline=1;darkOpacity=0.05;darkOpacity2=0.1;align=left;verticalAlign=top;" vertex="1" parent="1">
          <mxGeometry x="600" y="260" width="160" height="110" as="geometry" />
        </mxCell>
        <mxCell id="rzhcJyeLl6TSTbfqU0lv-12" value="&lt;div&gt;&lt;div&gt;&amp;lt;&amp;lt;Docker Container&amp;gt;&amp;gt;&lt;/div&gt;&lt;div&gt;Name: elasticsearch-1&lt;/div&gt;&lt;div&gt;Amount: {1,...,N}&lt;/div&gt;&lt;/div&gt;" style="shape=cube;whiteSpace=wrap;html=1;boundedLbl=1;backgroundOutline=1;darkOpacity=0.05;darkOpacity2=0.1;align=left;verticalAlign=top;" vertex="1" parent="1">
          <mxGeometry x="600" y="130" width="160" height="110" as="geometry" />
        </mxCell>
        <mxCell id="rzhcJyeLl6TSTbfqU0lv-13" value="&lt;div&gt;&lt;div&gt;&amp;lt;&amp;lt;Docker Container&amp;gt;&amp;gt;&lt;/div&gt;&lt;div&gt;Name: dev-graphite-1&lt;/div&gt;&lt;div&gt;Amount: {1,...,N}&lt;/div&gt;&lt;/div&gt;" style="shape=cube;whiteSpace=wrap;html=1;boundedLbl=1;backgroundOutline=1;darkOpacity=0.05;darkOpacity2=0.1;align=left;verticalAlign=top;" vertex="1" parent="1">
          <mxGeometry x="400" y="260" width="160" height="110" as="geometry" />
        </mxCell>
      </root>
    </mxGraphModel>
  </diagram>
</mxfile>
